<mxfile host="app.diagrams.net" modified="2024-01-22T22:17:47.227Z" agent="Mozilla/5.0 (Windows NT 10.0; Win64; x64) AppleWebKit/537.36 (KHTML, like Gecko) Chrome/120.0.0.0 Safari/537.36 Edg/120.0.0.0" version="22.1.18" etag="I8DKI-9ZrPN5BIrWpHYP" type="github">
  <diagram name="Page-1" id="jzAa_dJm8gxh18elaQzs">
    <mxGraphModel>
      <root>
        <mxCell id="0" />
        <mxCell id="1" parent="0" />
      </root>
    </mxGraphModel>
  </diagram>
</mxfile>
